<svg xmlns="http://www.w3.org/2000/svg" aria-hidden="true" style="position:absolute;width:0;height:0;overflow:hidden"><defs><symbol id="icon-facebook" viewBox="0 0 32 32"><path d="M21.33 5.31h2.92V.23C23.75.15 22.01 0 19.99 0c-4.2 0-7.1 2.65-7.1 7.52V12H8.26v5.69h4.65V32h5.7V17.69h4.46l.7-5.69H18.6V8.08c0-1.64.45-2.77 2.74-2.77z"/></symbol><symbol id="icon-instagram" viewBox="0 0 32 32"><path d="M31.97 9.4a11.7 11.7 0 0 0-.74-3.87 7.8 7.8 0 0 0-1.85-2.84A7.87 7.87 0 0 0 26.54.84C25.52.45 24.36.17 22.66.1 20.95.02 20.4 0 16.06 0s-4.89.02-6.6.1C7.76.16 6.6.43 5.58.83a7.8 7.8 0 0 0-2.83 1.85A7.87 7.87 0 0 0 .9 5.52C.5 6.54.23 7.7.16 9.4c-.08 1.71-.1 2.26-.1 6.6s.02 4.9.1 6.6c.07 1.7.34 2.87.73 3.88a7.9 7.9 0 0 0 1.85 2.84c.8.81 1.77 1.44 2.84 1.84 1.02.4 2.18.67 3.88.75 1.7.07 2.25.09 6.6.09s4.88-.02 6.59-.1a11.7 11.7 0 0 0 3.88-.74 8.18 8.18 0 0 0 4.68-4.68c.4-1.02.67-2.18.75-3.88.07-1.7.1-2.25.1-6.6s-.02-4.89-.09-6.6zm-2.88 13.07a8.76 8.76 0 0 1-.55 2.97 5.31 5.31 0 0 1-3.04 3.04c-.56.22-1.41.48-2.97.55-1.69.07-2.2.1-6.46.1s-4.79-.02-6.47-.1a8.76 8.76 0 0 1-2.97-.55 4.93 4.93 0 0 1-1.84-1.2 4.97 4.97 0 0 1-1.19-1.83 8.81 8.81 0 0 1-.55-2.97c-.07-1.69-.1-2.2-.1-6.47s.03-4.78.1-6.46c.07-1.56.33-2.4.55-2.97.26-.7.66-1.32 1.2-1.84a4.97 4.97 0 0 1 1.84-1.19A8.81 8.81 0 0 1 9.6 3c1.69-.07 2.2-.1 6.46-.1 4.28 0 4.78.03 6.47.1 1.56.07 2.4.33 2.96.55.7.26 1.33.66 1.84 1.2.53.51.94 1.14 1.2 1.83.22.57.48 1.42.55 2.97.07 1.69.1 2.2.1 6.46s-.03 4.77-.1 6.46z"/><path d="M16.06 7.78a8.22 8.22 0 1 0 0 16.45 8.22 8.22 0 0 0 0-16.45zm0 13.55a5.33 5.33 0 1 1 0-10.66 5.33 5.33 0 0 1 0 10.67zM26.52 7.46a1.92 1.92 0 1 1-3.83 0 1.92 1.92 0 0 1 3.83 0z"/></symbol><symbol id="icon-linkedin" viewBox="0 0 32 32"><path d="M32 32V20.26c0-5.74-1.24-10.16-7.95-10.16-3.23 0-5.39 1.77-6.27 3.45h-.1v-2.92h-6.36V32h6.63V21.42c0-2.79.52-5.48 3.97-5.48 3.4 0 3.45 3.18 3.45 5.66V32H32zM.53 10.64h6.63V32H.53V10.64zM3.84 0C1.72 0 0 1.72 0 3.84s1.72 3.88 3.84 3.88A3.88 3.88 0 0 0 7.7 3.84 3.85 3.85 0 0 0 3.84 0z"/></symbol><symbol id="icon-twitter" viewBox="0 0 32 32"><path d="M32 6.08c-1.19.52-2.46.87-3.78 1.03a6.52 6.52 0 0 0 2.89-3.62 13.11 13.11 0 0 1-4.16 1.59 6.57 6.57 0 0 0-11.2 5.98A18.57 18.57 0 0 1 2.23 4.2a6.57 6.57 0 0 0 2.02 8.77 6.48 6.48 0 0 1-2.97-.81v.07a6.59 6.59 0 0 0 5.26 6.44 6.55 6.55 0 0 1-2.97.1 6.62 6.62 0 0 0 6.13 4.58 13.18 13.18 0 0 1-9.7 2.7A18.47 18.47 0 0 0 10.06 29c12.08 0 18.68-10 18.68-18.67 0-.29-.01-.57-.03-.85 1.3-.92 2.4-2.07 3.29-3.4z"/></symbol></defs></svg>